# vtk DataFile Version 3.0
annular actuator boundary particles
ASCII
DATASET POLYDATA
POINTS 600 float
0.060000000 0.000000000 -0.270000000
0.056749035 0.019481968 -0.270000000
0.047348431 0.036852763 -0.270000000
0.032816889 0.050229989 -0.270000000
0.014729129 0.058164016 -0.270000000
-0.004954761 0.059795070 -0.270000000
-0.024101725 0.054946400 -0.270000000
-0.040636894 0.044143435 -0.270000000
-0.052768425 0.028556844 -0.270000000
-0.059181678 0.009875675 -0.270000000
-0.059181678 -0.009875675 -0.270000000
-0.052768425 -0.028556844 -0.270000000
-0.040636894 -0.044143435 -0.270000000
-0.024101725 -0.054946400 -0.270000000
-0.004954761 -0.059795070 -0.270000000
0.014729129 -0.058164016 -0.270000000
0.032816889 -0.050229989 -0.270000000
0.047348431 -0.036852763 -0.270000000
0.056749035 -0.019481968 -0.270000000
0.073333333 0.000000000 -0.270000000
0.070613934 0.019785097 -0.270000000
0.062657423 0.038102823 -0.270000000
0.050053897 0.053594637 -0.270000000
0.033738103 0.065111583 -0.270000000
0.014920108 0.071799500 -0.270000000
-0.005004444 0.073162376 -0.270000000
-0.024557838 0.069099134 -0.270000000
-0.042289890 0.059911125 -0.270000000
-0.056885495 0.046279783 -0.270000000
-0.067262162 0.029216080 -0.270000000
-0.072650303 0.009985554 -0.270000000
-0.072650303 -0.009985554 -0.270000000
-0.067262162 -0.029216080 -0.270000000
-0.056885495 -0.046279783 -0.270000000
-0.042289890 -0.059911125 -0.270000000
-0.024557838 -0.069099134 -0.270000000
-0.005004444 -0.073162376 -0.270000000
0.014920108 -0.071799500 -0.270000000
0.033738103 -0.065111583 -0.270000000
0.050053897 -0.053594637 -0.270000000
0.062657423 -0.038102823 -0.270000000
0.070613934 -0.019785097 -0.270000000
0.086666667 0.000000000 -0.270000000
0.084330555 0.019986709 -0.270000000
0.077448162 0.038895929 -0.270000000
0.066390518 0.055708260 -0.270000000
0.051753745 0.069517343 -0.270000000
0.034326913 0.079578729 -0.270000000
0.015049509 0.085350005 -0.270000000
-0.005039219 0.086520040 -0.270000000
-0.024856280 0.083025758 -0.270000000
-0.043333333 0.075055535 -0.270000000
-0.059474275 0.063039049 -0.270000000
-0.072408944 0.047624111 -0.270000000
-0.081440027 0.029641746 -0.270000000
-0.086080658 0.010061386 -0.270000000
-0.086080658 -0.010061386 -0.270000000
-0.081440027 -0.029641746 -0.270000000
-0.072408944 -0.047624111 -0.270000000
-0.059474275 -0.063039049 -0.270000000
-0.043333333 -0.075055535 -0.270000000
-0.024856280 -0.083025758 -0.270000000
-0.005039219 -0.086520040 -0.270000000
0.015049509 -0.085350005 -0.270000000
0.034326913 -0.079578729 -0.270000000
0.051753745 -0.069517343 -0.270000000
0.066390518 -0.055708260 -0.270000000
0.077448162 -0.038895929 -0.270000000
0.084330555 -0.019986709 -0.270000000
0.100000000 0.000000000 -0.270000000
0.097952994 0.020129852 -0.270000000
0.091895781 0.039435586 -0.270000000
0.082076344 0.057126822 -0.270000000
0.068896692 0.072479279 -0.270000000
0.052896401 0.084864426 -0.270000000
0.034730525 0.093775213 -0.270000000
0.015142778 0.098846832 -0.270000000
-0.005064917 0.099871651 -0.270000000
-0.025065253 0.096807712 -0.270000000
-0.044039415 0.089780454 -0.270000000
-0.061210598 0.079077574 -0.270000000
-0.075875812 0.065137248 -0.270000000
-0.087434662 0.048530196 -0.270000000
-0.095413926 0.029936312 -0.270000000
-0.099486932 0.010116832 -0.270000000
-0.099486932 -0.010116832 -0.270000000
-0.095413926 -0.029936312 -0.270000000
-0.087434662 -0.048530196 -0.270000000
-0.075875812 -0.065137248 -0.270000000
-0.061210598 -0.079077574 -0.270000000
-0.044039415 -0.089780454 -0.270000000
-0.025065253 -0.096807712 -0.270000000
-0.005064917 -0.099871651 -0.270000000
0.015142778 -0.098846832 -0.270000000
0.034730525 -0.093775213 -0.270000000
0.052896401 -0.084864426 -0.270000000
0.068896692 -0.072479279 -0.270000000
0.082076344 -0.057126822 -0.270000000
0.091895781 -0.039435586 -0.270000000
0.097952994 -0.020129852 -0.270000000
0.059181678 0.009875675 -0.250000000
0.052768425 0.028556844 -0.250000000
0.040636894 0.044143435 -0.250000000
0.024101725 0.054946400 -0.250000000
0.004954761 0.059795070 -0.250000000
-0.014729129 0.058164016 -0.250000000
-0.032816889 0.050229989 -0.250000000
-0.047348431 0.036852763 -0.250000000
-0.056749035 0.019481968 -0.250000000
-0.060000000 0.000000000 -0.250000000
-0.056749035 -0.019481968 -0.250000000
-0.047348431 -0.036852763 -0.250000000
-0.032816889 -0.050229989 -0.250000000
-0.014729129 -0.058164016 -0.250000000
0.004954761 -0.059795070 -0.250000000
0.024101725 -0.054946400 -0.250000000
0.040636894 -0.044143435 -0.250000000
0.052768425 -0.028556844 -0.250000000
0.059181678 -0.009875675 -0.250000000
0.072650303 0.009985554 -0.250000000
0.067262162 0.029216080 -0.250000000
0.056885495 0.046279783 -0.250000000
0.042289890 0.059911125 -0.250000000
0.024557838 0.069099134 -0.250000000
0.005004444 0.073162376 -0.250000000
-0.014920108 0.071799500 -0.250000000
-0.033738103 0.065111583 -0.250000000
-0.050053897 0.053594637 -0.250000000
-0.062657423 0.038102823 -0.250000000
-0.070613934 0.019785097 -0.250000000
-0.073333333 0.000000000 -0.250000000
-0.070613934 -0.019785097 -0.250000000
-0.062657423 -0.038102823 -0.250000000
-0.050053897 -0.053594637 -0.250000000
-0.033738103 -0.065111583 -0.250000000
-0.014920108 -0.071799500 -0.250000000
0.005004444 -0.073162376 -0.250000000
0.024557838 -0.069099134 -0.250000000
0.042289890 -0.059911125 -0.250000000
0.056885495 -0.046279783 -0.250000000
0.067262162 -0.029216080 -0.250000000
0.072650303 -0.009985554 -0.250000000
0.086080658 0.010061386 -0.250000000
0.081440027 0.029641746 -0.250000000
0.072408944 0.047624111 -0.250000000
0.059474275 0.063039049 -0.250000000
0.043333333 0.075055535 -0.250000000
0.024856280 0.083025758 -0.250000000
0.005039219 0.086520040 -0.250000000
-0.015049509 0.085350005 -0.250000000
-0.034326913 0.079578729 -0.250000000
-0.051753745 0.069517343 -0.250000000
-0.066390518 0.055708260 -0.250000000
-0.077448162 0.038895929 -0.250000000
-0.084330555 0.019986709 -0.250000000
-0.086666667 -0.000000000 -0.250000000
-0.084330555 -0.019986709 -0.250000000
-0.077448162 -0.038895929 -0.250000000
-0.066390518 -0.055708260 -0.250000000
-0.051753745 -0.069517343 -0.250000000
-0.034326913 -0.079578729 -0.250000000
-0.015049509 -0.085350005 -0.250000000
0.005039219 -0.086520040 -0.250000000
0.024856280 -0.083025758 -0.250000000
0.043333333 -0.075055535 -0.250000000
0.059474275 -0.063039049 -0.250000000
0.072408944 -0.047624111 -0.250000000
0.081440027 -0.029641746 -0.250000000
0.086080658 -0.010061386 -0.250000000
0.099486932 0.010116832 -0.250000000
0.095413926 0.029936312 -0.250000000
0.087434662 0.048530196 -0.250000000
0.075875812 0.065137248 -0.250000000
0.061210598 0.079077574 -0.250000000
0.044039415 0.089780454 -0.250000000
0.025065253 0.096807712 -0.250000000
0.005064917 0.099871651 -0.250000000
-0.015142778 0.098846832 -0.250000000
-0.034730525 0.093775213 -0.250000000
-0.052896401 0.084864426 -0.250000000
-0.068896692 0.072479279 -0.250000000
-0.082076344 0.057126822 -0.250000000
-0.091895781 0.039435586 -0.250000000
-0.097952994 0.020129852 -0.250000000
-0.100000000 0.000000000 -0.250000000
-0.097952994 -0.020129852 -0.250000000
-0.091895781 -0.039435586 -0.250000000
-0.082076344 -0.057126822 -0.250000000
-0.068896692 -0.072479279 -0.250000000
-0.052896401 -0.084864426 -0.250000000
-0.034730525 -0.093775213 -0.250000000
-0.015142778 -0.098846832 -0.250000000
0.005064917 -0.099871651 -0.250000000
0.025065253 -0.096807712 -0.250000000
0.044039415 -0.089780454 -0.250000000
0.061210598 -0.079077574 -0.250000000
0.075875812 -0.065137248 -0.250000000
0.087434662 -0.048530196 -0.250000000
0.095413926 -0.029936312 -0.250000000
0.099486932 -0.010116832 -0.250000000
0.060000000 0.000000000 -0.230000000
0.056749035 0.019481968 -0.230000000
0.047348431 0.036852763 -0.230000000
0.032816889 0.050229989 -0.230000000
0.014729129 0.058164016 -0.230000000
-0.004954761 0.059795070 -0.230000000
-0.024101725 0.054946400 -0.230000000
-0.040636894 0.044143435 -0.230000000
-0.052768425 0.028556844 -0.230000000
-0.059181678 0.009875675 -0.230000000
-0.059181678 -0.009875675 -0.230000000
-0.052768425 -0.028556844 -0.230000000
-0.040636894 -0.044143435 -0.230000000
-0.024101725 -0.054946400 -0.230000000
-0.004954761 -0.059795070 -0.230000000
0.014729129 -0.058164016 -0.230000000
0.032816889 -0.050229989 -0.230000000
0.047348431 -0.036852763 -0.230000000
0.056749035 -0.019481968 -0.230000000
0.073333333 0.000000000 -0.230000000
0.070613934 0.019785097 -0.230000000
0.062657423 0.038102823 -0.230000000
0.050053897 0.053594637 -0.230000000
0.033738103 0.065111583 -0.230000000
0.014920108 0.071799500 -0.230000000
-0.005004444 0.073162376 -0.230000000
-0.024557838 0.069099134 -0.230000000
-0.042289890 0.059911125 -0.230000000
-0.056885495 0.046279783 -0.230000000
-0.067262162 0.029216080 -0.230000000
-0.072650303 0.009985554 -0.230000000
-0.072650303 -0.009985554 -0.230000000
-0.067262162 -0.029216080 -0.230000000
-0.056885495 -0.046279783 -0.230000000
-0.042289890 -0.059911125 -0.230000000
-0.024557838 -0.069099134 -0.230000000
-0.005004444 -0.073162376 -0.230000000
0.014920108 -0.071799500 -0.230000000
0.033738103 -0.065111583 -0.230000000
0.050053897 -0.053594637 -0.230000000
0.062657423 -0.038102823 -0.230000000
0.070613934 -0.019785097 -0.230000000
0.086666667 0.000000000 -0.230000000
0.084330555 0.019986709 -0.230000000
0.077448162 0.038895929 -0.230000000
0.066390518 0.055708260 -0.230000000
0.051753745 0.069517343 -0.230000000
0.034326913 0.079578729 -0.230000000
0.015049509 0.085350005 -0.230000000
-0.005039219 0.086520040 -0.230000000
-0.024856280 0.083025758 -0.230000000
-0.043333333 0.075055535 -0.230000000
-0.059474275 0.063039049 -0.230000000
-0.072408944 0.047624111 -0.230000000
-0.081440027 0.029641746 -0.230000000
-0.086080658 0.010061386 -0.230000000
-0.086080658 -0.010061386 -0.230000000
-0.081440027 -0.029641746 -0.230000000
-0.072408944 -0.047624111 -0.230000000
-0.059474275 -0.063039049 -0.230000000
-0.043333333 -0.075055535 -0.230000000
-0.024856280 -0.083025758 -0.230000000
-0.005039219 -0.086520040 -0.230000000
0.015049509 -0.085350005 -0.230000000
0.034326913 -0.079578729 -0.230000000
0.051753745 -0.069517343 -0.230000000
0.066390518 -0.055708260 -0.230000000
0.077448162 -0.038895929 -0.230000000
0.084330555 -0.019986709 -0.230000000
0.100000000 0.000000000 -0.230000000
0.097952994 0.020129852 -0.230000000
0.091895781 0.039435586 -0.230000000
0.082076344 0.057126822 -0.230000000
0.068896692 0.072479279 -0.230000000
0.052896401 0.084864426 -0.230000000
0.034730525 0.093775213 -0.230000000
0.015142778 0.098846832 -0.230000000
-0.005064917 0.099871651 -0.230000000
-0.025065253 0.096807712 -0.230000000
-0.044039415 0.089780454 -0.230000000
-0.061210598 0.079077574 -0.230000000
-0.075875812 0.065137248 -0.230000000
-0.087434662 0.048530196 -0.230000000
-0.095413926 0.029936312 -0.230000000
-0.099486932 0.010116832 -0.230000000
-0.099486932 -0.010116832 -0.230000000
-0.095413926 -0.029936312 -0.230000000
-0.087434662 -0.048530196 -0.230000000
-0.075875812 -0.065137248 -0.230000000
-0.061210598 -0.079077574 -0.230000000
-0.044039415 -0.089780454 -0.230000000
-0.025065253 -0.096807712 -0.230000000
-0.005064917 -0.099871651 -0.230000000
0.015142778 -0.098846832 -0.230000000
0.034730525 -0.093775213 -0.230000000
0.052896401 -0.084864426 -0.230000000
0.068896692 -0.072479279 -0.230000000
0.082076344 -0.057126822 -0.230000000
0.091895781 -0.039435586 -0.230000000
0.097952994 -0.020129852 -0.230000000
0.059181678 0.009875675 -0.210000000
0.052768425 0.028556844 -0.210000000
0.040636894 0.044143435 -0.210000000
0.024101725 0.054946400 -0.210000000
0.004954761 0.059795070 -0.210000000
-0.014729129 0.058164016 -0.210000000
-0.032816889 0.050229989 -0.210000000
-0.047348431 0.036852763 -0.210000000
-0.056749035 0.019481968 -0.210000000
-0.060000000 0.000000000 -0.210000000
-0.056749035 -0.019481968 -0.210000000
-0.047348431 -0.036852763 -0.210000000
-0.032816889 -0.050229989 -0.210000000
-0.014729129 -0.058164016 -0.210000000
0.004954761 -0.059795070 -0.210000000
0.024101725 -0.054946400 -0.210000000
0.040636894 -0.044143435 -0.210000000
0.052768425 -0.028556844 -0.210000000
0.059181678 -0.009875675 -0.210000000
0.072650303 0.009985554 -0.210000000
0.067262162 0.029216080 -0.210000000
0.056885495 0.046279783 -0.210000000
0.042289890 0.059911125 -0.210000000
0.024557838 0.069099134 -0.210000000
0.005004444 0.073162376 -0.210000000
-0.014920108 0.071799500 -0.210000000
-0.033738103 0.065111583 -0.210000000
-0.050053897 0.053594637 -0.210000000
-0.062657423 0.038102823 -0.210000000
-0.070613934 0.019785097 -0.210000000
-0.073333333 0.000000000 -0.210000000
-0.070613934 -0.019785097 -0.210000000
-0.062657423 -0.038102823 -0.210000000
-0.050053897 -0.053594637 -0.210000000
-0.033738103 -0.065111583 -0.210000000
-0.014920108 -0.071799500 -0.210000000
0.005004444 -0.073162376 -0.210000000
0.024557838 -0.069099134 -0.210000000
0.042289890 -0.059911125 -0.210000000
0.056885495 -0.046279783 -0.210000000
0.067262162 -0.029216080 -0.210000000
0.072650303 -0.009985554 -0.210000000
0.086080658 0.010061386 -0.210000000
0.081440027 0.029641746 -0.210000000
0.072408944 0.047624111 -0.210000000
0.059474275 0.063039049 -0.210000000
0.043333333 0.075055535 -0.210000000
0.024856280 0.083025758 -0.210000000
0.005039219 0.086520040 -0.210000000
-0.015049509 0.085350005 -0.210000000
-0.034326913 0.079578729 -0.210000000
-0.051753745 0.069517343 -0.210000000
-0.066390518 0.055708260 -0.210000000
-0.077448162 0.038895929 -0.210000000
-0.084330555 0.019986709 -0.210000000
-0.086666667 -0.000000000 -0.210000000
-0.084330555 -0.019986709 -0.210000000
-0.077448162 -0.038895929 -0.210000000
-0.066390518 -0.055708260 -0.210000000
-0.051753745 -0.069517343 -0.210000000
-0.034326913 -0.079578729 -0.210000000
-0.015049509 -0.085350005 -0.210000000
0.005039219 -0.086520040 -0.210000000
0.024856280 -0.083025758 -0.210000000
0.043333333 -0.075055535 -0.210000000
0.059474275 -0.063039049 -0.210000000
0.072408944 -0.047624111 -0.210000000
0.081440027 -0.029641746 -0.210000000
0.086080658 -0.010061386 -0.210000000
0.099486932 0.010116832 -0.210000000
0.095413926 0.029936312 -0.210000000
0.087434662 0.048530196 -0.210000000
0.075875812 0.065137248 -0.210000000
0.061210598 0.079077574 -0.210000000
0.044039415 0.089780454 -0.210000000
0.025065253 0.096807712 -0.210000000
0.005064917 0.099871651 -0.210000000
-0.015142778 0.098846832 -0.210000000
-0.034730525 0.093775213 -0.210000000
-0.052896401 0.084864426 -0.210000000
-0.068896692 0.072479279 -0.210000000
-0.082076344 0.057126822 -0.210000000
-0.091895781 0.039435586 -0.210000000
-0.097952994 0.020129852 -0.210000000
-0.100000000 0.000000000 -0.210000000
-0.097952994 -0.020129852 -0.210000000
-0.091895781 -0.039435586 -0.210000000
-0.082076344 -0.057126822 -0.210000000
-0.068896692 -0.072479279 -0.210000000
-0.052896401 -0.084864426 -0.210000000
-0.034730525 -0.093775213 -0.210000000
-0.015142778 -0.098846832 -0.210000000
0.005064917 -0.099871651 -0.210000000
0.025065253 -0.096807712 -0.210000000
0.044039415 -0.089780454 -0.210000000
0.061210598 -0.079077574 -0.210000000
0.075875812 -0.065137248 -0.210000000
0.087434662 -0.048530196 -0.210000000
0.095413926 -0.029936312 -0.210000000
0.099486932 -0.010116832 -0.210000000
0.060000000 0.000000000 -0.190000000
0.056749035 0.019481968 -0.190000000
0.047348431 0.036852763 -0.190000000
0.032816889 0.050229989 -0.190000000
0.014729129 0.058164016 -0.190000000
-0.004954761 0.059795070 -0.190000000
-0.024101725 0.054946400 -0.190000000
-0.040636894 0.044143435 -0.190000000
-0.052768425 0.028556844 -0.190000000
-0.059181678 0.009875675 -0.190000000
-0.059181678 -0.009875675 -0.190000000
-0.052768425 -0.028556844 -0.190000000
-0.040636894 -0.044143435 -0.190000000
-0.024101725 -0.054946400 -0.190000000
-0.004954761 -0.059795070 -0.190000000
0.014729129 -0.058164016 -0.190000000
0.032816889 -0.050229989 -0.190000000
0.047348431 -0.036852763 -0.190000000
0.056749035 -0.019481968 -0.190000000
0.073333333 0.000000000 -0.190000000
0.070613934 0.019785097 -0.190000000
0.062657423 0.038102823 -0.190000000
0.050053897 0.053594637 -0.190000000
0.033738103 0.065111583 -0.190000000
0.014920108 0.071799500 -0.190000000
-0.005004444 0.073162376 -0.190000000
-0.024557838 0.069099134 -0.190000000
-0.042289890 0.059911125 -0.190000000
-0.056885495 0.046279783 -0.190000000
-0.067262162 0.029216080 -0.190000000
-0.072650303 0.009985554 -0.190000000
-0.072650303 -0.009985554 -0.190000000
-0.067262162 -0.029216080 -0.190000000
-0.056885495 -0.046279783 -0.190000000
-0.042289890 -0.059911125 -0.190000000
-0.024557838 -0.069099134 -0.190000000
-0.005004444 -0.073162376 -0.190000000
0.014920108 -0.071799500 -0.190000000
0.033738103 -0.065111583 -0.190000000
0.050053897 -0.053594637 -0.190000000
0.062657423 -0.038102823 -0.190000000
0.070613934 -0.019785097 -0.190000000
0.086666667 0.000000000 -0.190000000
0.084330555 0.019986709 -0.190000000
0.077448162 0.038895929 -0.190000000
0.066390518 0.055708260 -0.190000000
0.051753745 0.069517343 -0.190000000
0.034326913 0.079578729 -0.190000000
0.015049509 0.085350005 -0.190000000
-0.005039219 0.086520040 -0.190000000
-0.024856280 0.083025758 -0.190000000
-0.043333333 0.075055535 -0.190000000
-0.059474275 0.063039049 -0.190000000
-0.072408944 0.047624111 -0.190000000
-0.081440027 0.029641746 -0.190000000
-0.086080658 0.010061386 -0.190000000
-0.086080658 -0.010061386 -0.190000000
-0.081440027 -0.029641746 -0.190000000
-0.072408944 -0.047624111 -0.190000000
-0.059474275 -0.063039049 -0.190000000
-0.043333333 -0.075055535 -0.190000000
-0.024856280 -0.083025758 -0.190000000
-0.005039219 -0.086520040 -0.190000000
0.015049509 -0.085350005 -0.190000000
0.034326913 -0.079578729 -0.190000000
0.051753745 -0.069517343 -0.190000000
0.066390518 -0.055708260 -0.190000000
0.077448162 -0.038895929 -0.190000000
0.084330555 -0.019986709 -0.190000000
0.100000000 0.000000000 -0.190000000
0.097952994 0.020129852 -0.190000000
0.091895781 0.039435586 -0.190000000
0.082076344 0.057126822 -0.190000000
0.068896692 0.072479279 -0.190000000
0.052896401 0.084864426 -0.190000000
0.034730525 0.093775213 -0.190000000
0.015142778 0.098846832 -0.190000000
-0.005064917 0.099871651 -0.190000000
-0.025065253 0.096807712 -0.190000000
-0.044039415 0.089780454 -0.190000000
-0.061210598 0.079077574 -0.190000000
-0.075875812 0.065137248 -0.190000000
-0.087434662 0.048530196 -0.190000000
-0.095413926 0.029936312 -0.190000000
-0.099486932 0.010116832 -0.190000000
-0.099486932 -0.010116832 -0.190000000
-0.095413926 -0.029936312 -0.190000000
-0.087434662 -0.048530196 -0.190000000
-0.075875812 -0.065137248 -0.190000000
-0.061210598 -0.079077574 -0.190000000
-0.044039415 -0.089780454 -0.190000000
-0.025065253 -0.096807712 -0.190000000
-0.005064917 -0.099871651 -0.190000000
0.015142778 -0.098846832 -0.190000000
0.034730525 -0.093775213 -0.190000000
0.052896401 -0.084864426 -0.190000000
0.068896692 -0.072479279 -0.190000000
0.082076344 -0.057126822 -0.190000000
0.091895781 -0.039435586 -0.190000000
0.097952994 -0.020129852 -0.190000000
0.059181678 0.009875675 -0.170000000
0.052768425 0.028556844 -0.170000000
0.040636894 0.044143435 -0.170000000
0.024101725 0.054946400 -0.170000000
0.004954761 0.059795070 -0.170000000
-0.014729129 0.058164016 -0.170000000
-0.032816889 0.050229989 -0.170000000
-0.047348431 0.036852763 -0.170000000
-0.056749035 0.019481968 -0.170000000
-0.060000000 0.000000000 -0.170000000
-0.056749035 -0.019481968 -0.170000000
-0.047348431 -0.036852763 -0.170000000
-0.032816889 -0.050229989 -0.170000000
-0.014729129 -0.058164016 -0.170000000
0.004954761 -0.059795070 -0.170000000
0.024101725 -0.054946400 -0.170000000
0.040636894 -0.044143435 -0.170000000
0.052768425 -0.028556844 -0.170000000
0.059181678 -0.009875675 -0.170000000
0.072650303 0.009985554 -0.170000000
0.067262162 0.029216080 -0.170000000
0.056885495 0.046279783 -0.170000000
0.042289890 0.059911125 -0.170000000
0.024557838 0.069099134 -0.170000000
0.005004444 0.073162376 -0.170000000
-0.014920108 0.071799500 -0.170000000
-0.033738103 0.065111583 -0.170000000
-0.050053897 0.053594637 -0.170000000
-0.062657423 0.038102823 -0.170000000
-0.070613934 0.019785097 -0.170000000
-0.073333333 0.000000000 -0.170000000
-0.070613934 -0.019785097 -0.170000000
-0.062657423 -0.038102823 -0.170000000
-0.050053897 -0.053594637 -0.170000000
-0.033738103 -0.065111583 -0.170000000
-0.014920108 -0.071799500 -0.170000000
0.005004444 -0.073162376 -0.170000000
0.024557838 -0.069099134 -0.170000000
0.042289890 -0.059911125 -0.170000000
0.056885495 -0.046279783 -0.170000000
0.067262162 -0.029216080 -0.170000000
0.072650303 -0.009985554 -0.170000000
0.086080658 0.010061386 -0.170000000
0.081440027 0.029641746 -0.170000000
0.072408944 0.047624111 -0.170000000
0.059474275 0.063039049 -0.170000000
0.043333333 0.075055535 -0.170000000
0.024856280 0.083025758 -0.170000000
0.005039219 0.086520040 -0.170000000
-0.015049509 0.085350005 -0.170000000
-0.034326913 0.079578729 -0.170000000
-0.051753745 0.069517343 -0.170000000
-0.066390518 0.055708260 -0.170000000
-0.077448162 0.038895929 -0.170000000
-0.084330555 0.019986709 -0.170000000
-0.086666667 -0.000000000 -0.170000000
-0.084330555 -0.019986709 -0.170000000
-0.077448162 -0.038895929 -0.170000000
-0.066390518 -0.055708260 -0.170000000
-0.051753745 -0.069517343 -0.170000000
-0.034326913 -0.079578729 -0.170000000
-0.015049509 -0.085350005 -0.170000000
0.005039219 -0.086520040 -0.170000000
0.024856280 -0.083025758 -0.170000000
0.043333333 -0.075055535 -0.170000000
0.059474275 -0.063039049 -0.170000000
0.072408944 -0.047624111 -0.170000000
0.081440027 -0.029641746 -0.170000000
0.086080658 -0.010061386 -0.170000000
0.099486932 0.010116832 -0.170000000
0.095413926 0.029936312 -0.170000000
0.087434662 0.048530196 -0.170000000
0.075875812 0.065137248 -0.170000000
0.061210598 0.079077574 -0.170000000
0.044039415 0.089780454 -0.170000000
0.025065253 0.096807712 -0.170000000
0.005064917 0.099871651 -0.170000000
-0.015142778 0.098846832 -0.170000000
-0.034730525 0.093775213 -0.170000000
-0.052896401 0.084864426 -0.170000000
-0.068896692 0.072479279 -0.170000000
-0.082076344 0.057126822 -0.170000000
-0.091895781 0.039435586 -0.170000000
-0.097952994 0.020129852 -0.170000000
-0.100000000 0.000000000 -0.170000000
-0.097952994 -0.020129852 -0.170000000
-0.091895781 -0.039435586 -0.170000000
-0.082076344 -0.057126822 -0.170000000
-0.068896692 -0.072479279 -0.170000000
-0.052896401 -0.084864426 -0.170000000
-0.034730525 -0.093775213 -0.170000000
-0.015142778 -0.098846832 -0.170000000
0.005064917 -0.099871651 -0.170000000
0.025065253 -0.096807712 -0.170000000
0.044039415 -0.089780454 -0.170000000
0.061210598 -0.079077574 -0.170000000
0.075875812 -0.065137248 -0.170000000
0.087434662 -0.048530196 -0.170000000
0.095413926 -0.029936312 -0.170000000
0.099486932 -0.010116832 -0.170000000
